<svg xmlns="http://www.w3.org/2000/svg" viewBox="0 0 16 16" shape-rendering="crispEdges" data-m98-concept="loose-parts" data-m98-grid="16">
  <rect fill="#20242a" x="1" y="8" width="7" height="7" />
  <rect fill="#1d9f98" x="2" y="9" width="5" height="5" />
  <rect fill="#76d5ce" x="2" y="9" width="5" height="1" />
  <rect fill="#12645f" x="6" y="10" width="1" height="3" />
  <rect fill="#0d4d49" x="2" y="13" width="5" height="1" />
  <rect fill="#20242a" x="8" y="8" width="7" height="7" />
  <rect fill="#7651ad" x="9" y="9" width="5" height="5" />
  <rect fill="#c3a8e8" x="9" y="9" width="5" height="1" />
  <rect fill="#4c3473" x="13" y="10" width="1" height="3" />
  <rect fill="#382754" x="9" y="13" width="5" height="1" />
  <rect fill="#20242a" x="5" y="1" width="7" height="7" />
  <rect fill="#d94f83" x="6" y="2" width="5" height="5" />
  <rect fill="#f5a4c2" x="6" y="2" width="5" height="1" />
  <rect fill="#913155" x="10" y="3" width="1" height="3" />
  <rect fill="#70243f" x="6" y="6" width="5" height="1" />
</svg>
