<svg xmlns="http://www.w3.org/2000/svg" viewBox="0 0 16 16" shape-rendering="crispEdges" data-m98-concept="reset-desktop" data-m98-grid="16">
  <path fill="#202327" d="M2 1H14V2H15V11H14V13H10V14H13V15H3V14H6V13H2V12H1V2H2Z" />
  <path fill="#68727b" d="M2 2H14V11H13V12H3V11H2Z" />
  <rect fill="#b5c0c4" x="3" y="3" width="10" height="7" />
  <rect fill="#28546d" x="4" y="4" width="8" height="5" />
  <path fill="#8e1f25" d="M5 8L8 5V7H12V10H10V9H8V11Z" />
  <path fill="#ed4b43" d="M4 7L7 4V6H11V9H9V8H7V10Z" />
  <polygon fill="#ff7965" points="4,7 7,4 7,5" />
  <rect fill="#edf5f2" x="4" y="4" width="2" height="1" />
  <rect fill="#42494f" x="4" y="10" width="8" height="1" />
  <rect fill="#8c969b" x="7" y="12" width="2" height="2" />
  <rect fill="#e0e7e4" x="5" y="14" width="6" height="1" />
</svg>
