<svg xmlns="http://www.w3.org/2000/svg" viewBox="0 0 32 32" shape-rendering="crispEdges" data-m98-concept="fresh-greens" data-m98-grid="32">
  <path fill="#1c241e" d="M4 3H27V4H29V28H28V29H5V28H3V4H4Z" />
  <rect fill="#d8dfc2" x="4" y="4" width="23" height="23" />
  <rect fill="#c4ceac" x="8" y="4" width="2" height="23" />
  <path fill="#4b5350" d="M8 23H24V27H8ZM20 17H24V27H20ZM13 16H24V20H13ZM13 9H17V20H13ZM13 9H28V13H13Z" />
  <rect fill="#205a40" x="4" y="22" width="5" height="5" />
  <path fill="#f27524" d="M26 6H29V10H28V16H26Z" />
  <rect fill="#ffae43" x="26" y="6" width="1" height="1" />
  <rect fill="#c84f18" x="28" y="7" width="1" height="3" />
</svg>
