<svg xmlns="http://www.w3.org/2000/svg" viewBox="0 0 24 24" shape-rendering="crispEdges" data-m98-concept="trini-roti" data-m98-grid="24">
  <path fill="#30231b" d="M3 5H18V6H20V20H19V22H2V21H1V7H2V6H3Z" />
  <rect fill="#8f5c3b" x="3" y="7" width="16" height="14" />
  <path fill="#f2c98f" d="M3 6H17V7H18V19H17V20H2V7H3Z" />
  <rect fill="#fff3d6" x="3" y="7" width="13" height="2" />
  <rect fill="#b94f30" x="5" y="9" width="9" height="3" />
  <path fill="#703723" d="M5 14H9V15H10V17H9V18H5V17H4V15H5Z" />
  <rect fill="#dc783a" x="5" y="14" width="4" height="3" />
  <rect fill="#ffbb65" x="6" y="14" width="3" height="1" />
  <rect fill="#895536" x="12" y="14" width="5" height="2" />
  <rect fill="#a96f46" x="12" y="17" width="4" height="1" />
  <rect fill="#69422d" x="3" y="20" width="15" height="1" />
  <path fill="#34241a" d="M17 2H20V3H22V4H23V8H22V10H20V11H17V10H15V8H14V5H15V3H17Z" />
  <path fill="#b4783f" d="M17 3H20V4H21V5H22V8H21V9H19V10H17V9H16V8H15V5H16V4H17Z" />
  <path fill="#e7b66f" d="M17 3H20V4H21V6H20V7H17V6H16V4H17Z" />
  <path fill="#82502e" d="M18 6H21V8H20V9H18V8H17V7H18Z" />
  <polygon fill="#34241a" points="16,8 19,10 9,22 5,22" />
  <polygon fill="#aa6d39" points="16,9 18,10 9,21 7,21" />
  <polygon fill="#e1aa61" points="16,9 17,10 9,20 8,20" />
</svg>
