<svg xmlns="http://www.w3.org/2000/svg" viewBox="0 0 24 24" shape-rendering="crispEdges" data-m98-concept="trini-roti" data-m98-grid="24">
  <path fill="#30231b" d="M3 5H18V6H20V20H19V22H2V21H1V7H2V6H3Z" />
  <rect fill="#8f5b3a" x="3" y="7" width="16" height="14" />
  <path fill="#f1c891" d="M3 6H17V7H18V19H17V20H2V7H3Z" />
  <rect fill="#fff3d7" x="3" y="7" width="13" height="2" />
  <rect fill="#b84d30" x="5" y="9" width="10" height="1" />
  <path fill="#8b4930" d="M6 9H7V12H6ZM9 8H10V12H9ZM12 9H13V12H12Z" />
  <path fill="#653622" d="M4 12H14V15H13V17H11V18H7V17H5V15H4Z" />
  <path fill="#d96f38" d="M5 13H13V15H12V16H6V15H5Z" />
  <rect fill="#ffb75f" x="6" y="13" width="6" height="1" />
  <rect fill="#875438" x="15" y="13" width="3" height="1" />
  <rect fill="#a96f46" x="15" y="16" width="2" height="1" />
  <rect fill="#68412c" x="3" y="20" width="15" height="1" />
  <polygon fill="#35251b" points="17,8 19,9 9,22 6,22" />
  <polygon fill="#9f6738" points="18,9 19,9 9,21 8,21" />
  <path fill="#35251b" d="M20 1H22V2H20ZM19 2H23V3H19ZM18 3H23V5H18ZM17 5H22V7H17ZM17 7H21V8H17ZM17 8H20V9H17ZM18 9H20V10H18Z" />
  <path fill="#ad7441" d="M20 2H22V3H20ZM19 3H22V5H19ZM18 5H21V7H18ZM18 7H20V8H18ZM18 8H19V9H18Z" />
  <path fill="#edc57f" d="M20 2H21V3H20ZM19 3H20V5H19ZM18 5H19V6H18Z" />
  <path fill="#785033" d="M21 4H22V5H21ZM20 5H22V6H20ZM19 6H21V7H19ZM19 7H20V8H19Z" />
</svg>
