<?xml version="1.0" encoding="UTF-8"?>
<svg id="Layer_2" data-name="Layer 2" xmlns="http://www.w3.org/2000/svg" viewBox="0 0 390 844">
  <defs>
    <style>
      .cls-1 {
        fill: none;
      }

      .cls-2 {
        fill: #0970fa;
      }

      .cls-3 {
        fill: #ffb000;
      }

      .cls-4 {
        fill: #0b6ad1;
      }
    </style>
  </defs>
  <g id="Layer_7" data-name="Layer 7">
    <g>
      <rect class="cls-3" x=".76" y=".35" width="388.47" height="843.29" transform="translate(-.76 .35)"/>
      <g>
        <path class="cls-1" d="M192.64,566.65c-.14.21-.27.42-.41.63M226.06,434.33v-.04"/>
        <path class="cls-4" d="M293.63,416.24c-.01-3.5-3.48-6.33-6.96-6.33-35.31.07-67.73-17.72-86.74-47.58-2.33-3.65-8.34-3.63-10.66.02-18.89,29.93-51.25,47.83-87.2,47.9-3.48,0-6.31,2.85-6.3,6.35l.09,45.83v7.33c.02,4.51.23,8.99.66,13.43,5.26,56.29,42.69,105.51,96.37,124.99,1.4.5,2.93.5,4.32-.01,9.12-3.35,17.77-7.55,25.86-12.51,12.14-7.42,23.04-16.53,32.44-26.94,24.07-26.67,38.29-61.89,38.22-99.32l-.1-53.16ZM197.64,580.6c-1.67.78-3.61.78-5.27.01-43.19-19.77-71.16-63.3-71.24-110.89l-.06-30.15c0-3.05,2.16-5.67,5.15-6.23,24.2-4.54,46.37-15.84,64.12-32.69,2.42-2.31,6.22-2.31,8.66-.02,17.86,16.85,40.08,28.09,64.23,32.52,3,.55,5.18,3.16,5.18,6.21l.06,30.09c.08,47.59-27.72,91.21-70.83,111.15Z"/>
        <path class="cls-3" d="M232.93,468.68s-3.06,3.1-7.59,7.65l-37.23,37.48c-2.31,2.33-6.41,2.54-8.92,0l-22.49-22.48c-2.48-2.46-2.49-6.48-.02-8.95,2.46-2.48,6.46-2.49,8.92-.02l18.03,18.01,40.36-40.64c.78-.78,1.7-1.32,2.69-1.61,2.14-.63,4.55-.1,6.24,1.59,2.47,2.47,2.48,6.48.01,8.96Z"/>
        <path class="cls-4" d="M255.84,469.47c.07,41.67-23.72,79.97-60.87,98.37-.78-.39-1.55-.79-2.33-1.19,0-.01-.01-.01-.01-.01,9.41-14.42,21.93-37.49,28.91-68.2,1.76-7.71,2.98-15.1,3.8-22.11,4.53-4.55,7.59-7.65,7.59-7.65,2.47-2.48,2.46-6.49-.01-8.96-1.69-1.69-4.1-2.22-6.24-1.59.27-9.01-.06-17.02-.62-23.8h0c9.45,4.5,19.41,7.93,29.73,10.23l.05,24.91Z"/>
        <path class="cls-2" d="M156.68,482.39c-2.47,2.47-2.46,6.49.02,8.95l22.49,22.48c2.51,2.53,6.61,2.32,8.92,0l37.23-37.48c-.82,7.01-2.04,14.4-3.8,22.11-6.98,30.71-19.5,53.78-28.91,68.2-35.86-18.69-58.8-56.14-58.87-96.95l-.05-24.98c22.66-5.12,43.55-15.72,60.98-30.92,8.75,7.6,18.38,14.03,28.63,19.2.9.46,1.82.91,2.74,1.33h0c.56,6.79.89,14.8.62,23.81-.99.29-1.91.83-2.69,1.61l-40.36,40.64-18.03-18.01c-2.46-2.47-6.46-2.46-8.92.02Z"/>
      </g>
    </g>
  </g>
</svg>