<svg xmlns="http://www.w3.org/2000/svg" viewBox="0 0 32 32" shape-rendering="crispEdges" data-m98-concept="understandingfafsa" data-m98-grid="32">
  <path fill="#29282a" d="M13 15H30V29H13Z" />
  <rect fill="#9d8e82" x="14" y="16" width="15" height="12" />
  <rect fill="#ddd0c2" x="14" y="16" width="14" height="11" />
  <polygon fill="#8b7d72" points="14,17 21,22 29,17 29,19 21,25 14,19" />
  <polygon fill="#f2e8dd" points="15,17 21,21 28,17 28,18 21,24 15,18" />
  <path fill="#292a2b" d="M3 2H24V28H23V29H3Z" />
  <rect fill="#898a87" x="5" y="4" width="19" height="24" />
  <rect fill="#d2cec6" x="4" y="3" width="19" height="25" />
  <rect fill="#f3efe7" x="4" y="3" width="18" height="24" />
  <rect fill="#ffffff" x="5" y="3" width="17" height="1" />
  <rect fill="#1f679f" x="5" y="4" width="15" height="5" />
  <rect fill="#82c4f4" x="5" y="4" width="15" height="1" />
  <rect fill="#f5f1e8" x="7" y="6" width="10" height="2" />
  <rect fill="#343b40" x="5" y="10" width="15" height="2" />
  <rect fill="#c5963a" x="5" y="13" width="7" height="7" />
  <rect fill="#5f889f" x="6" y="14" width="5" height="4" />
  <rect fill="#e4b65d" x="8" y="14" width="3" height="2" />
  <rect fill="#aaa7a1" x="13" y="13" width="7" height="1" />
  <rect fill="#8d8d88" x="13" y="15" width="7" height="1" />
  <rect fill="#aaa7a1" x="13" y="17" width="6" height="1" />
  <rect fill="#8d8d88" x="13" y="19" width="7" height="1" />
  <rect fill="#b7b3ab" x="5" y="21" width="15" height="1" />
  <rect fill="#8d8d88" x="5" y="23" width="6" height="1" />
  <rect fill="#aaa7a1" x="5" y="25" width="6" height="1" />
  <rect fill="#8d8d88" x="13" y="23" width="7" height="1" />
  <rect fill="#aaa7a1" x="13" y="25" width="6" height="1" />
  <rect fill="#4a4b4a" x="22" y="4" width="1" height="23" />
  <rect fill="#1d1e1e" x="4" y="27" width="19" height="1" />
</svg>
